<svg width="1080" height="1080" viewBox="0 0 1080 1080" fill="none" xmlns="http://www.w3.org/2000/svg">
<mask id="mask0" mask-type="alpha" maskUnits="userSpaceOnUse" x="0" y="0" width="1080" height="1080">
<circle cx="540" cy="540" r="540" fill="url(#paint0_linear)"/>
</mask>
<g mask="url(#mask0)">
<circle cx="540" cy="540" r="540" fill="url(#paint1_linear)"/>
<path d="M353 849C350 863 346 874 344 884C396 936.5 585.5 1108 699 1095C812.5 1082 938.5 915.5 938.5 913.5C938.5 911.5 940 909 938.5 902C937 895 936.5 900.5 935 899C933.5 897.5 933 897.5 931 895.5C929 893.5 928.5 893.5 927.5 891.5C926.5 889.5 927.5 888 927 887C926.5 886 927 885 926 882.5C925 880 924 881.5 922 881C920 880.5 920 879.5 919 878C918 876.5 919 876.5 919 874.5C919 872.5 918.5 873 915 871.5C911.5 870 910 870 908.5 871.5C907 873 907 873.5 905.5 876C904 878.5 902 877 900 876C898 875 896.5 874 894 873C891.5 872 892.5 873 891.5 874.5C890.5 876 889.5 876.5 887 878C884.5 879.5 885 878.5 883.5 878.5C882 878.5 879 880 877 880C875 880 871.5 885.5 871 888C870.5 890.5 873.5 891.5 875.5 893C877.5 894.5 880 898.5 879 902C878 905.5 878 905 875 905.5C872 906 871.5 903.5 868 902.5C864.5 901.5 866 898.5 864 895C862 891.5 858.5 888 856.5 888C854.5 888 853.5 890 851 893C848.5 896 849 896 846.5 896C844 896 845 894 843.5 892C842 890 840.5 891 839 891.5C837.5 892 836.5 894.5 835 896.5C833.5 898.5 832.5 899.5 828.5 901.5C824.5 903.5 823 900 821 898.5C819 897 817.5 895.5 816 894.5C814.5 893.5 812.5 896 811 897.5C809.5 899 810.5 902 811.5 906C812.5 910 809 910.5 808 912.5C807 914.5 806 916.5 804 918.5C802 920.5 800 921.5 797.5 921.5C795 921.5 784 923.5 780 924.5C776 925.5 767.5 928 765 928.5C762.5 929 763.5 926 762.5 923.5C761.5 921 762 913.5 761.5 907.5C761 901.5 761 903 761.5 902C762 901 763 898 762.5 895C762 892 761.5 885.5 761 881.5C760.5 877.5 759 867.5 758.5 863C758 858.5 757 851.5 757 848.5C757 845.5 758 842.5 758.5 839.5C759 836.5 758 832.5 755.5 827.5C753 822.5 753 816 752 811C751 806 751 796 751 789.5C751 783 750 782 750 775C750 768 746.5 758.5 746 755C745.5 751.5 741 742.5 739 738C737 733.5 728.5 725.5 726 723C723.5 720.5 719 716.5 718 715C717 713.5 713 706 711 702C709 698 701 687.5 699 685C697 682.5 680.5 668.5 676.5 665.5C672.5 662.5 651 647.5 649.5 646.5C648 645.5 641.5 640 640.5 638.5C639.5 637 637.5 634.5 635.5 633.5C633.5 632.5 629.5 630 628 629C626.5 628 623.5 623.5 622.5 622.5C621.5 621.5 617.5 616 615.5 615C613.5 614 606.5 613.5 604.5 613C602.5 612.5 602 610 601 608C600 606 596.5 600 596 597.5C595.5 595 595 590 595 589.5C595 589 598 591 599 592C600 593 602 592.5 602.5 592C603 591.5 603 587.5 603.5 587C604 586.5 606.5 590.5 607.5 590C608.5 589.5 607 586.5 606.5 584.5C606 582.5 606 578.5 606.5 576.5C607 574.5 606.5 570.5 606.5 569.5C606.5 568.5 610.5 568.5 612.5 567C614.5 565.5 618 561 619.5 559C621 557 623.5 553 624.5 549.5C625.5 546 629 537.5 630 535C631 532.5 634 523 635 520C636 517 639 511 640.5 507C642 503 641 499 640.5 495.5C640 492 623.5 496.5 622 479.5C620.5 462.5 621 464.5 616.5 457C612 449.5 603.5 431 585.5 425.5C567.5 420 563.5 414.5 548.5 408.5C533.5 402.5 516 409.5 498 414.5C480 419.5 459 425 447 431C435 437 442 454.5 442 457C442 459.5 441.5 463.5 441 464.5C440.5 465.5 438.5 469 438.5 470.5C438.5 472 436 477.5 435.5 479.5C435 481.5 434 485 433 485.5C432 486 431 487.5 432.5 489.5C434 491.5 437 494 438.5 496.5C440 499 440 502 440 504C440 506 438 510.5 437 512C436 513.5 433.5 516.5 432.5 518C431.5 519.5 430.5 523 429.5 524.5C428.5 526 423.5 530.5 422.5 531.5C421.5 532.5 419.5 534.5 419 536.5C418.5 538.5 419.5 541.5 421 542.5C422.5 543.5 427.5 545.5 429.5 546.5C431.5 547.5 434 549 435 551C436 553 436 555 435 556C434 557 433.5 559 433 560C432.5 561 434 563.5 435 564.5C436 565.5 437.5 568 436.5 569C435.5 570 435 570.5 435 573.5C435 576.5 437.5 577 439 578C440.5 579 441 581.5 441 583C441 584.5 441 586 440 588.5C439.2 590.5 439 593.333 439 594.5C439 598.5 440 601 443 605.5C449 614.5 470 611 482.5 610.5C494.892 610.004 495.982 612.457 497.949 616.884L498 617C500 621.5 499.5 626 498 628C496.5 630 492 633 490 636C488 639 486 644 482.5 646.5C479 649 465 656 459 658C453 660 432.5 667.5 424.5 671C416.5 674.5 403.5 684.5 398.5 689C393.5 693.5 383.5 708 379 717.5C374.5 727 370.5 757 369.5 763.5C368.5 770 363 795.5 361 805.5C359 815.5 356 835 353 849Z" fill="black" stroke="black"/>
<g filter="url(#filter0_d)">
<path d="M780 924.5C776 925.5 767.5 928 765 928.5C742.667 934.833 697.1 947.5 693.5 947.5C689 947.5 639 948.5 624.5 956C610 963.5 590 994 590 1005.5C590 1017 588 1041 590 1056.5C592 1072 647.5 1092.5 659 1092C670.5 1091.5 727.5 1065 733.5 1061.5C739.5 1058 816 1027 821 1022.5C826 1018 900 962 908.5 956C915.3 951.2 931.333 925.667 938.5 913.5C938.5 911.5 940 909 938.5 902C937 895 936.5 900.5 935 899C933.5 897.5 933 897.5 931 895.5C929 893.5 928.5 893.5 927.5 891.5C926.5 889.5 927.5 888 927 887C926.5 886 927 885 926 882.5C925 880 924 881.5 922 881C920 880.5 920 879.5 919 878C918 876.5 919 876.5 919 874.5C919 872.5 918.5 873 915 871.5H908.5C907 873 907 873.5 905.5 876C904 878.5 902 877 900 876C898 875 896.5 874 894 873C891.5 872 892.5 873 891.5 874.5C890.5 876 889.5 876.5 887 878C884.5 879.5 885 878.5 883.5 878.5C882 878.5 879 880 877 880C875 880 871.5 885.5 871 888C870.5 890.5 873.5 891.5 875.5 893C877.5 894.5 880 898.5 879 902C878 905.5 878 905 875 905.5C872 906 871.5 903.5 868 902.5C864.5 901.5 866 898.5 864 895C862 891.5 858.5 888 856.5 888C854.5 888 853.5 890 851 893C848.5 896 849 896 846.5 896C844 896 845 894 843.5 892C842 890 840.5 891 839 891.5C837.5 892 836.5 894.5 835 896.5C833.5 898.5 832.5 899.5 828.5 901.5C824.5 903.5 823 900 821 898.5C819 897 817.5 895.5 816 894.5C814.5 893.5 812.5 896 811 897.5C809.5 899 810.5 902 811.5 906C812.5 910 809 910.5 808 912.5C807 914.5 806 916.5 804 918.5C802 920.5 800 921.5 797.5 921.5C795 921.5 784 923.5 780 924.5Z" fill="black"/>
<path d="M780 924.5C776 925.5 767.5 928 765 928.5C742.667 934.833 697.1 947.5 693.5 947.5C689 947.5 639 948.5 624.5 956C610 963.5 590 994 590 1005.5C590 1017 588 1041 590 1056.5C592 1072 647.5 1092.5 659 1092C670.5 1091.5 727.5 1065 733.5 1061.5C739.5 1058 816 1027 821 1022.5C826 1018 900 962 908.5 956C915.3 951.2 931.333 925.667 938.5 913.5C938.5 911.5 940 909 938.5 902C937 895 936.5 900.5 935 899C933.5 897.5 933 897.5 931 895.5C929 893.5 928.5 893.5 927.5 891.5C926.5 889.5 927.5 888 927 887C926.5 886 927 885 926 882.5C925 880 924 881.5 922 881C920 880.5 920 879.5 919 878C918 876.5 919 876.5 919 874.5C919 872.5 918.5 873 915 871.5H908.5C907 873 907 873.5 905.5 876C904 878.5 902 877 900 876C898 875 896.5 874 894 873C891.5 872 892.5 873 891.5 874.5C890.5 876 889.5 876.5 887 878C884.5 879.5 885 878.5 883.5 878.5C882 878.5 879 880 877 880C875 880 871.5 885.5 871 888C870.5 890.5 873.5 891.5 875.5 893C877.5 894.5 880 898.5 879 902C878 905.5 878 905 875 905.5C872 906 871.5 903.5 868 902.5C864.5 901.5 866 898.5 864 895C862 891.5 858.5 888 856.5 888C854.5 888 853.5 890 851 893C848.5 896 849 896 846.5 896C844 896 845 894 843.5 892C842 890 840.5 891 839 891.5C837.5 892 836.5 894.5 835 896.5C833.5 898.5 832.5 899.5 828.5 901.5C824.5 903.5 823 900 821 898.5C819 897 817.5 895.5 816 894.5C814.5 893.5 812.5 896 811 897.5C809.5 899 810.5 902 811.5 906C812.5 910 809 910.5 808 912.5C807 914.5 806 916.5 804 918.5C802 920.5 800 921.5 797.5 921.5C795 921.5 784 923.5 780 924.5Z" stroke="black"/>
</g>
<g filter="url(#filter1_d)">
<path d="M129.5 884C127 884 115.5 887 110.5 884C126.333 910.333 178.4 986.5 220 1028.5L421 1094.5C467.667 1098.83 562.2 1107.5 567 1107.5C571.8 1107.5 615.667 1078.5 637 1064L546 964L344 884C342 894 339.5 899 338 900.5C336.5 902 333 899 333 895.5C333 892 335.5 891 337 888C338.5 885 339.5 884 339.5 880C339.5 876 340.5 871.5 339.5 869C338.5 866.5 334.5 864.5 333 869C331.5 873.5 327.5 871.5 325.5 874C323.9 876 322.167 874.833 321.5 874L325.5 862.5C325.5 861.5 325.9 858.9 327.5 856.5C329.5 853.5 327 852.5 325.5 849C324 845.5 321.5 845 319 845C316.5 845 312.5 848 311 849C309.8 849.8 309.167 854.333 309 856.5C307 857.667 302.6 860.5 301 862.5C299.4 864.5 300.333 864.667 301 864.5C300.667 866 300.2 869.5 301 871.5C302 874 303 875 305.5 880C307.5 884 304.667 884.333 303 884C301.333 882.667 297.6 880 296 880C294 880 293.5 877 291.5 871.5C289.5 866 289 869 289 862.5V856.5C289 854 287 853 284 852.5C281 852 278 854.5 278 856.5V869C278 872 277.5 877 278 880C278.5 883 281.5 888 284 891C286.5 894 287 899 289 899C291 899 288.5 908 287 908C285.5 908 284 911 281.5 915C279 919 275.5 915 271 915H262C261 916.333 258.5 919.9 256.5 923.5C254 928 258 932.5 256.5 932.5C255 932.5 248 933.5 246 932.5C244 931.5 238.5 928 237.5 926C236.5 924 232 919 231 915C230.2 911.8 227.333 909 226 908C224.333 909 220.8 911 220 911C219 911 218.5 916.5 216.5 919C214.5 921.5 211.5 920.5 210 919C208.5 917.5 206 914.5 204 911C202 907.5 200 901.5 199.5 899C199 896.5 198.5 891 197 888C195.5 885 190.5 882 187 880C183.5 878 178.5 881 176.5 884C174.9 886.4 173.167 889.667 172.5 891C169 891 161.2 890.4 158 888C154 885 155.5 881 154.5 877C153.5 873 151.5 872 149 871.5C146.5 871 143 874 141 877C139 880 132 884 129.5 884Z" fill="black"/>
<path d="M129.5 884C127 884 115.5 887 110.5 884C126.333 910.333 178.4 986.5 220 1028.5L421 1094.5C467.667 1098.83 562.2 1107.5 567 1107.5C571.8 1107.5 615.667 1078.5 637 1064L546 964L344 884C342 894 339.5 899 338 900.5C336.5 902 333 899 333 895.5C333 892 335.5 891 337 888C338.5 885 339.5 884 339.5 880C339.5 876 340.5 871.5 339.5 869C338.5 866.5 334.5 864.5 333 869C331.5 873.5 327.5 871.5 325.5 874C323.9 876 322.167 874.833 321.5 874L325.5 862.5C325.5 861.5 325.9 858.9 327.5 856.5C329.5 853.5 327 852.5 325.5 849C324 845.5 321.5 845 319 845C316.5 845 312.5 848 311 849C309.8 849.8 309.167 854.333 309 856.5C307 857.667 302.6 860.5 301 862.5C299.4 864.5 300.333 864.667 301 864.5C300.667 866 300.2 869.5 301 871.5C302 874 303 875 305.5 880C307.5 884 304.667 884.333 303 884C301.333 882.667 297.6 880 296 880C294 880 293.5 877 291.5 871.5C289.5 866 289 869 289 862.5V856.5C289 854 287 853 284 852.5C281 852 278 854.5 278 856.5V869C278 872 277.5 877 278 880C278.5 883 281.5 888 284 891C286.5 894 287 899 289 899C291 899 288.5 908 287 908C285.5 908 284 911 281.5 915C279 919 275.5 915 271 915H262C261 916.333 258.5 919.9 256.5 923.5C254 928 258 932.5 256.5 932.5C255 932.5 248 933.5 246 932.5C244 931.5 238.5 928 237.5 926C236.5 924 232 919 231 915C230.2 911.8 227.333 909 226 908C224.333 909 220.8 911 220 911C219 911 218.5 916.5 216.5 919C214.5 921.5 211.5 920.5 210 919C208.5 917.5 206 914.5 204 911C202 907.5 200 901.5 199.5 899C199 896.5 198.5 891 197 888C195.5 885 190.5 882 187 880C183.5 878 178.5 881 176.5 884C174.9 886.4 173.167 889.667 172.5 891C169 891 161.2 890.4 158 888C154 885 155.5 881 154.5 877C153.5 873 151.5 872 149 871.5C146.5 871 143 874 141 877C139 880 132 884 129.5 884Z" stroke="black"/>
</g>
<path d="M442.5 454.5C443.5 455.5 446 461.5 447 466.5L572.5 516.5C583.833 534.167 606.6 569.4 607 569C607.5 568.5 610.5 568 612.5 567C614.5 566 618 561 619.5 559.5C621 558 623.5 551 625 547.5C626.5 544 630 533.5 630.5 533C631 532.5 635 520.5 635 519.5C635 518.5 641 506.5 641 506C641 505.5 644 494.5 644 492.5C644 490.5 642.5 485 642.5 484C642.5 483 647.5 482 647.5 481.5V468.5C647.5 467 645.5 464.5 645.5 462.5C645.5 460.5 642.5 457.5 641 456.5C639.5 455.5 641 453.5 640 451.5C639 449.5 640.5 447.5 641 446C641.5 444.5 642.5 444.5 642.5 443C642.5 441.5 646 443 645.5 440C645 437 643 436 642.5 434C642 432 640 431 638.5 429.5C637 428 637 428 632.5 424.5C628 421 628.5 422 626 420.5C623.5 419 619 417.5 617.5 416C616 414.5 616.5 414 617.5 412.5C618.5 411 619 410.5 619 409C619 407.5 619.5 406 619 404.5C618.5 403 617.5 404 616.5 404.5C615.5 405 614.5 404 613 403C611.5 402 612 400.5 611.5 399.5C611 398.5 610 397.5 609 397.5H603.5H599.5C598 397.5 598.5 399 597 399.5C595.5 400 596 401.5 595 401.5C594 401.5 592.5 402.5 591 401.5C589.5 400.5 591 399 591 397.5C591 396 591 395.5 590 393.5C589 391.5 589 391 588 389C587 387 585.5 385.5 584 384.5C582.5 383.5 581.5 383 580 382C578.5 381 575.5 382 573 382C570.5 382 568.5 380.5 566 380.5C563.5 380.5 557.5 382 556 382H551C549.5 382 545 380.5 543.5 380.5H537C535.5 380.5 531.5 383 532.5 383C533.5 383 546 382.5 545 383C544 383.5 538 384.5 536 385.5C534 386.5 524.5 386.5 522 385.5C519.5 384.5 516 385.5 513 385.5H502.5H491H483.5C483.1 385.5 479 387.5 477 388.5C477 389.5 476.8 391.8 476 393C475 394.5 471.5 392.5 471 393C470.5 393.5 466.5 395 465.5 396C464.5 397 466.5 398.5 468 399.5C469.5 400.5 467.5 402.5 466.5 402.5C465.7 402.5 463.167 403.5 462 404C461.667 405.167 460.8 407.6 460 408C459 408.5 457 410.5 455 410.5C453.4 410.5 451.333 411.5 450.5 412C449.333 412.333 446.4 413.1 444 413.5C441.6 413.9 440.667 415.333 440.5 416C439.5 417.5 437.3 420.7 436.5 421.5C435.5 422.5 432.5 424.5 431.5 425.5C430.5 426.5 427.5 430 426.5 431.5C425.5 433 428.5 437 428.5 438C428.5 439 430.5 442.5 430.5 444.5C430.5 446.5 431.5 449 432.5 449.5C433.5 450 436.5 450 437.5 450.5C438.5 451 441.5 453.5 442.5 454.5Z" fill="black" stroke="black"/>
<g filter="url(#filter2_d)">
<path d="M445 465C441.5 463 434.5 458 440.5 450C446.5 442 435.5 439 432.5 442C429.5 445 428.5 451 431.5 452.5C434.5 454 430 455.5 428 454.5C426 453.5 426.5 444 429 441C431.5 438 447.5 415.5 448 414C448.5 412.5 449.5 408 452 406.5C454.5 405 460 403.5 462 404.5C464 405.5 464.5 405.5 465 406.5C465.5 407.5 462.5 408.5 461 407.5C459.5 406.5 455 408 454 408.5C453 409 452.5 411.5 452 413C451.5 414.5 470 412.5 472 411C473.6 409.8 473 403.5 472.5 400.5C471 399.333 467.8 396.8 467 396C466 395 466 394.5 465 394C464.2 393.6 462 393.833 461 394C460.667 393.333 460.5 391.9 462.5 391.5C465 391 469 388 470.5 388H475C476.5 388 477 388 479 388.5C481 389 482.5 394 484 394C485.5 394 508.5 392.5 512 392.5C515.5 392.5 514.5 389.5 516 388C516.261 387.739 516.614 387.431 517.024 387.1C517.156 386.982 517.299 386.869 517.451 386.761C519.403 385.24 522.232 383.384 523 383C524 382.5 528 381.5 530 381C532 380.5 535 380 536 380C537 380 545 380 549.5 382C554 384 548.5 387 547 387C545.5 387 543.5 385.5 542.5 385C541.5 384.5 539 383 538 383C537 383 533 383 531.5 383.5C530 384 527.5 384 526.5 384.5C525.5 385 523 384 523 384.5C523 384.813 519.476 385.322 517.451 386.761C517.303 386.876 517.16 386.989 517.024 387.1C516.096 387.928 515.681 389.027 516.5 390.5C519 395 528 396 531.5 396C535 396 546.5 395 549.5 395C552.5 395 559.5 389 559 387C558.6 385.4 557.167 383 556.5 382C555.333 381.333 552.5 380 550.5 380C548 380 537 380 542.5 379C548 378 552.5 378 554.5 378C556.5 378 559 378 562 379C565 380 567.5 381 569.5 382C571.5 383 573.5 383.5 574.5 386C574.758 386.646 575.084 386.791 575.329 386.608C575.26 386.296 575.358 385.987 575.686 385.686C575.763 384.455 574.989 382.359 572 381C566.5 378.5 566 377.5 563 377C560 376.5 548 375 544.5 376C541 377 538 375.5 541.5 374.5C545 373.5 548 373.5 551 373.5C554 373.5 562.5 373 566 375C569.5 377 573.5 377 575.5 379.5C577.5 382 579.5 380 580.5 380C581.5 380 585.5 378 587.5 378C589.5 378 609 376.5 611.5 392C614 407.5 606 398 606 397.5C606 397 602 381.5 584.5 383.5C579.113 384.116 576.569 384.873 575.686 385.686C575.658 386.134 575.517 386.468 575.329 386.608C575.681 388.187 580.344 389.844 581.5 391C583.5 393 586.5 403.5 590 405C593.5 406.5 604.5 417.5 607.5 418C610.5 418.5 616 418 617.5 418C619 418 624 418.5 626 419.5C628 420.5 636.5 427 639 430.5C641.5 434 646 439 645 442C644 445 641.5 443.5 640.5 446C639.5 448.5 638 454.5 638 455.5C638 456.5 617 486 608.5 485C600 484 466.5 457.5 461.5 463C456.5 468.5 451 471 450 467C449 463 440.5 451 440.5 452C440.5 453 435.5 457.5 445 464.5C452.6 470.1 448.167 467.167 445 465Z" fill="black"/>
<path d="M445 465C441.5 463 434.5 458 440.5 450C446.5 442 435.5 439 432.5 442C429.5 445 428.5 451 431.5 452.5C434.5 454 430 455.5 428 454.5C426 453.5 426.5 444 429 441C431.5 438 447.5 415.5 448 414C448.5 412.5 449.5 408 452 406.5C454.5 405 460 403.5 462 404.5C464 405.5 464.5 405.5 465 406.5C465.5 407.5 462.5 408.5 461 407.5C459.5 406.5 455 408 454 408.5C453 409 452.5 411.5 452 413C451.5 414.5 470 412.5 472 411C473.6 409.8 473 403.5 472.5 400.5C471 399.333 467.8 396.8 467 396C466 395 466 394.5 465 394C464.2 393.6 462 393.833 461 394C460.667 393.333 460.5 391.9 462.5 391.5C465 391 469 388 470.5 388C472 388 473.5 388 475 388C476.5 388 477 388 479 388.5C481 389 482.5 394 484 394C485.5 394 508.5 392.5 512 392.5C515.5 392.5 514.5 389.5 516 388C517.5 386.5 522 383.5 523 383C524 382.5 528 381.5 530 381C532 380.5 535 380 536 380C537 380 545 380 549.5 382C554 384 548.5 387 547 387C545.5 387 543.5 385.5 542.5 385C541.5 384.5 539 383 538 383C537 383 533 383 531.5 383.5C530 384 527.5 384 526.5 384.5C525.5 385 523 384 523 384.5C523 385 514 386 516.5 390.5C519 395 528 396 531.5 396C535 396 546.5 395 549.5 395C552.5 395 559.5 389 559 387C558.6 385.4 557.167 383 556.5 382C555.333 381.333 552.5 380 550.5 380C548 380 537 380 542.5 379C548 378 552.5 378 554.5 378C556.5 378 559 378 562 379C565 380 567.5 381 569.5 382C571.5 383 573.5 383.5 574.5 386C575.5 388.5 577.5 383.5 572 381C566.5 378.5 566 377.5 563 377C560 376.5 548 375 544.5 376C541 377 538 375.5 541.5 374.5C545 373.5 548 373.5 551 373.5C554 373.5 562.5 373 566 375C569.5 377 573.5 377 575.5 379.5C577.5 382 579.5 380 580.5 380C581.5 380 585.5 378 587.5 378C589.5 378 609 376.5 611.5 392C614 407.5 606 398 606 397.5C606 397 602 381.5 584.5 383.5C567 385.5 579.5 389 581.5 391C583.5 393 586.5 403.5 590 405C593.5 406.5 604.5 417.5 607.5 418C610.5 418.5 616 418 617.5 418C619 418 624 418.5 626 419.5C628 420.5 636.5 427 639 430.5C641.5 434 646 439 645 442C644 445 641.5 443.5 640.5 446C639.5 448.5 638 454.5 638 455.5C638 456.5 617 486 608.5 485C600 484 466.5 457.5 461.5 463C456.5 468.5 451 471 450 467C449 463 440.5 451 440.5 452C440.5 453 435.5 457.5 445 464.5C452.6 470.1 448.167 467.167 445 465Z" stroke="black"/>
</g>
</g>
<defs>
<filter id="filter0_d" x="577.611" y="860" width="373.051" height="243.509" filterUnits="userSpaceOnUse" color-interpolation-filters="sRGB">
<feFlood flood-opacity="0" result="BackgroundImageFix"/>
<feColorMatrix in="SourceAlpha" type="matrix" values="0 0 0 0 0 0 0 0 0 0 0 0 0 0 0 0 0 0 127 0"/>
<feOffset/>
<feGaussianBlur stdDeviation="5.5"/>
<feColorMatrix type="matrix" values="0 0 0 0 0 0 0 0 0 0 0 0 0 0 0 0 0 0 1 0"/>
<feBlend mode="normal" in2="BackgroundImageFix" result="effect1_dropShadow"/>
<feBlend mode="normal" in="SourceGraphic" in2="effect1_dropShadow" result="shape"/>
</filter>
<filter id="filter1_d" x="99.0715" y="833.5" width="549.686" height="285.5" filterUnits="userSpaceOnUse" color-interpolation-filters="sRGB">
<feFlood flood-opacity="0" result="BackgroundImageFix"/>
<feColorMatrix in="SourceAlpha" type="matrix" values="0 0 0 0 0 0 0 0 0 0 0 0 0 0 0 0 0 0 127 0"/>
<feOffset/>
<feGaussianBlur stdDeviation="5.5"/>
<feColorMatrix type="matrix" values="0 0 0 0 0 0 0 0 0 0 0 0 0 0 0 0 0 0 1 0"/>
<feBlend mode="normal" in2="BackgroundImageFix" result="effect1_dropShadow"/>
<feBlend mode="normal" in="SourceGraphic" in2="effect1_dropShadow" result="shape"/>
</filter>
<filter id="filter2_d" x="414.266" y="360.945" width="243.377" height="136.58" filterUnits="userSpaceOnUse" color-interpolation-filters="sRGB">
<feFlood flood-opacity="0" result="BackgroundImageFix"/>
<feColorMatrix in="SourceAlpha" type="matrix" values="0 0 0 0 0 0 0 0 0 0 0 0 0 0 0 0 0 0 127 0"/>
<feOffset/>
<feGaussianBlur stdDeviation="6"/>
<feColorMatrix type="matrix" values="0 0 0 0 0 0 0 0 0 0 0 0 0 0 0 0 0 0 1 0"/>
<feBlend mode="normal" in2="BackgroundImageFix" result="effect1_dropShadow"/>
<feBlend mode="normal" in="SourceGraphic" in2="effect1_dropShadow" result="shape"/>
</filter>
<linearGradient id="paint0_linear" x1="540" y1="0" x2="540" y2="1080" gradientUnits="userSpaceOnUse">
<stop stop-color="#7E9CCE"/>
<stop offset="0.244792" stop-color="#90ACD3"/>
<stop offset="0.520833" stop-color="#C5C0BA"/>
<stop offset="0.682292" stop-color="#EAB45F"/>
<stop offset="0.838542" stop-color="#D67C01"/>
</linearGradient>
<linearGradient id="paint1_linear" x1="540" y1="0" x2="540" y2="1080" gradientUnits="userSpaceOnUse">
<stop stop-color="#7E9CCE"/>
<stop offset="0.244792" stop-color="#90ACD3"/>
<stop offset="0.520833" stop-color="#C5C0BA"/>
<stop offset="0.682292" stop-color="#EAB45F"/>
<stop offset="0.838542" stop-color="#D67C01"/>
</linearGradient>
</defs>
</svg>
