<svg width="165" height="93" viewBox="0 0 165 93" fill="none" xmlns="http://www.w3.org/2000/svg">
<g filter="url(#filter0_d_10:9)">
<path d="M34.075 11L12.1833 46.7958L34.075 82H131.7L153 46.7958L131.108 11H34.075Z" stroke="url(#paint0_linear_10:9)" stroke-width="10"/>
</g>
<g filter="url(#filter1_d_10:9)">
<path d="M49.2611 44.7263C49.8051 44.613 50.3265 44.5337 50.8251 44.4883C51.3238 44.4317 51.8055 44.4033 52.2701 44.4033C53.5621 44.4033 54.7011 44.596 55.6871 44.9813C56.6731 45.3667 57.5005 45.8993 58.1691 46.5793C58.8378 47.2593 59.3421 48.0583 59.6821 48.9763C60.0221 49.883 60.1921 50.8633 60.1921 51.9173C60.1921 53.2207 59.9598 54.4107 59.4951 55.4873C59.0418 56.564 58.4071 57.4877 57.5911 58.2583C56.7751 59.0177 55.8061 59.607 54.6841 60.0263C53.5735 60.4457 52.3608 60.6553 51.0461 60.6553C50.2755 60.6553 49.5445 60.576 48.8531 60.4173C48.1618 60.2587 47.5101 60.049 46.8981 59.7883C46.2975 59.5163 45.7365 59.2103 45.2151 58.8703C44.7051 58.519 44.2461 58.1507 43.8381 57.7653L45.1301 55.9803C45.4021 55.595 45.7591 55.4023 46.2011 55.4023C46.4845 55.4023 46.7735 55.493 47.0681 55.6743C47.3628 55.8557 47.6971 56.054 48.0711 56.2693C48.4565 56.4847 48.9041 56.683 49.4141 56.8643C49.9355 57.0457 50.5588 57.1363 51.2841 57.1363C52.0548 57.1363 52.7348 57.0117 53.3241 56.7623C53.9135 56.513 54.4008 56.1673 54.7861 55.7253C55.1828 55.272 55.4775 54.7393 55.6701 54.1273C55.8741 53.504 55.9761 52.8297 55.9761 52.1043C55.9761 50.767 55.5851 49.7243 54.8031 48.9763C54.0325 48.217 52.8878 47.8373 51.3691 47.8373C50.2018 47.8373 49.0061 48.0527 47.7821 48.4833L45.1641 47.7353L47.2041 35.8013H59.3421V37.5863C59.3421 38.187 59.1551 38.6743 58.7811 39.0483C58.4071 39.4223 57.7725 39.6093 56.8771 39.6093H50.1281L49.2611 44.7263ZM74.9224 35.1213V49.5883H75.7044C75.9877 49.5883 76.2087 49.5543 76.3674 49.4863C76.5374 49.407 76.7074 49.254 76.8774 49.0273L81.2124 43.6723C81.3937 43.4343 81.592 43.253 81.8074 43.1283C82.034 43.0037 82.323 42.9413 82.6744 42.9413H86.5164L81.0934 49.4183C80.708 49.9283 80.2887 50.3193 79.8354 50.5913C80.0734 50.7613 80.283 50.9597 80.4644 51.1863C80.657 51.413 80.8384 51.6567 81.0084 51.9173L86.8224 60.3833H83.0314C82.7027 60.3833 82.4194 60.3323 82.1814 60.2303C81.9434 60.117 81.745 59.9187 81.5864 59.6353L77.1324 53.0223C76.9737 52.7617 76.8094 52.5917 76.6394 52.5123C76.4694 52.433 76.2144 52.3933 75.8744 52.3933H74.9224V60.3833H70.7234V35.1213H74.9224ZM103.879 42.9413L94.3765 65.1773C94.2518 65.472 94.0875 65.693 93.8835 65.8403C93.6908 65.999 93.3905 66.0783 92.9825 66.0783H89.8545L93.1185 59.0743L86.0635 42.9413H89.7525C90.0811 42.9413 90.3361 43.0207 90.5175 43.1793C90.7101 43.338 90.8518 43.5193 90.9425 43.7233L94.6485 52.7673C94.7731 53.0733 94.8751 53.3793 94.9545 53.6853C95.0451 53.9913 95.1301 54.303 95.2095 54.6203C95.3115 54.303 95.4135 53.9913 95.5155 53.6853C95.6175 53.368 95.7308 53.0563 95.8555 52.7503L99.3575 43.7233C99.4481 43.4967 99.5955 43.3097 99.7995 43.1623C100.015 43.015 100.253 42.9413 100.513 42.9413H103.879ZM120.143 42.9413V60.3833H117.576C117.021 60.3833 116.67 60.1283 116.522 59.6183L116.233 58.2243C115.519 58.9497 114.732 59.539 113.87 59.9923C113.009 60.4343 111.995 60.6553 110.827 60.6553C109.875 60.6553 109.031 60.4967 108.294 60.1793C107.569 59.8507 106.957 59.3917 106.458 58.8023C105.96 58.213 105.58 57.516 105.319 56.7113C105.07 55.8953 104.945 55 104.945 54.0253V42.9413H109.144V54.0253C109.144 55.0907 109.388 55.918 109.875 56.5073C110.374 57.0853 111.116 57.3743 112.102 57.3743C112.828 57.3743 113.508 57.2157 114.142 56.8983C114.777 56.5697 115.378 56.122 115.944 55.5553V42.9413H120.143Z" fill="#ECB613"/>
</g>
<defs>
<filter id="filter0_d_10:9" x="0.309021" y="0" width="164.543" height="93" filterUnits="userSpaceOnUse" color-interpolation-filters="sRGB">
<feFlood flood-opacity="0" result="BackgroundImageFix"/>
<feColorMatrix in="SourceAlpha" type="matrix" values="0 0 0 0 0 0 0 0 0 0 0 0 0 0 0 0 0 0 127 0" result="hardAlpha"/>
<feOffset/>
<feGaussianBlur stdDeviation="3"/>
<feColorMatrix type="matrix" values="0 0 0 0 0.92549 0 0 0 0 0.713726 0 0 0 0 0.0745098 0 0 0 1 0"/>
<feBlend mode="normal" in2="BackgroundImageFix" result="effect1_dropShadow_10:9"/>
<feBlend mode="normal" in="SourceGraphic" in2="effect1_dropShadow_10:9" result="shape"/>
</filter>
<filter id="filter1_d_10:9" x="37.8381" y="29.1213" width="88.3051" height="42.957" filterUnits="userSpaceOnUse" color-interpolation-filters="sRGB">
<feFlood flood-opacity="0" result="BackgroundImageFix"/>
<feColorMatrix in="SourceAlpha" type="matrix" values="0 0 0 0 0 0 0 0 0 0 0 0 0 0 0 0 0 0 127 0" result="hardAlpha"/>
<feOffset/>
<feGaussianBlur stdDeviation="3"/>
<feColorMatrix type="matrix" values="0 0 0 0 0.92549 0 0 0 0 0.713726 0 0 0 0 0.0745098 0 0 0 1 0"/>
<feBlend mode="normal" in2="BackgroundImageFix" result="effect1_dropShadow_10:9"/>
<feBlend mode="normal" in="SourceGraphic" in2="effect1_dropShadow_10:9" result="shape"/>
</filter>
<linearGradient id="paint0_linear_10:9" x1="82.5917" y1="11" x2="82.5917" y2="82" gradientUnits="userSpaceOnUse">
<stop stop-color="#ECB613"/>
<stop offset="1" stop-color="#C0971A"/>
</linearGradient>
</defs>
</svg>
