<svg width="736" height="736" viewBox="0 0 736 736" fill="none" xmlns="http://www.w3.org/2000/svg">
<rect width="736" height="736" rx="173" fill="#0077B7"/>
<rect x="165.12" y="145.613" width="418.848" height="439.351" fill="white"/>
<path d="M572.771 109H163.229C138.25 109 118 129.979 118 155.857V580.141C118 606.021 138.25 627 163.229 627H572.77C597.75 627 618 606.021 618 580.141V155.857C618 129.979 597.75 109 572.771 109ZM272.721 556.275C272.721 563.807 266.829 569.912 259.559 569.912H203.53C196.26 569.912 190.368 563.807 190.368 556.275V312.95C190.368 305.418 196.26 299.313 203.53 299.313H259.559C266.829 299.313 272.721 305.418 272.721 312.95V556.275ZM231.544 276.376C202.148 276.376 178.317 251.687 178.317 221.232C178.317 190.778 202.148 166.088 231.544 166.088C260.941 166.088 284.772 190.778 284.772 221.232C284.772 251.687 260.942 276.376 231.544 276.376ZM565.526 557.374C565.526 564.298 560.107 569.912 553.424 569.912H493.301C486.618 569.912 481.199 564.298 481.199 557.374V443.24C481.199 426.214 486.02 368.631 438.25 368.631C401.196 368.631 393.681 408.045 392.171 425.733V557.374C392.171 564.298 386.754 569.912 380.069 569.912H321.92C315.237 569.912 309.818 564.298 309.818 557.374V311.851C309.818 304.927 315.237 299.313 321.92 299.313H380.069C386.753 299.313 392.171 304.927 392.171 311.851V333.08C405.911 311.718 426.33 295.23 469.805 295.23C566.077 295.23 565.526 388.411 565.526 439.609V557.374Z" fill="#0077B7"/>
</svg>
