<svg width="736" height="736" viewBox="0 0 736 736" fill="none" xmlns="http://www.w3.org/2000/svg">
<rect width="736" height="736" rx="173" fill="white"/>
<path d="M426.883 110.461C409.342 104.92 390.684 101.89 371.309 101.89C314.778 101.89 264.187 127.445 230.46 167.59L317.369 240.706L426.883 110.461Z" fill="#1A73E8"/>
<path d="M230.42 167.59C203.55 199.563 187.324 240.825 187.324 285.835C187.324 320.439 194.221 348.465 205.544 373.581L317.33 240.706L230.42 167.59Z" fill="#EA4335"/>
<path d="M371.309 215.51C410.179 215.51 441.674 247.005 441.674 285.875C441.674 303.177 435.415 319.044 425.049 331.283C425.049 331.283 480.623 265.184 534.563 201.078C512.278 158.222 473.647 125.252 426.923 110.461L317.33 240.706C330.246 225.277 349.622 215.51 371.309 215.51Z" fill="#4285F4"/>
<path d="M371.309 356.199C332.439 356.199 300.944 324.705 300.944 285.835C300.944 268.652 307.124 252.905 317.329 240.666L205.543 373.581C224.639 415.96 256.413 449.966 289.144 492.823L425.009 331.283C412.132 346.512 392.837 356.199 371.309 356.199Z" fill="#FBBC04"/>
<path d="M422.338 536.915C483.693 440.956 555.254 397.382 555.254 285.835C555.254 255.257 547.759 226.433 534.563 201.078L289.184 492.823C299.589 506.457 310.074 520.968 320.319 536.955C357.635 594.602 347.269 629.167 371.349 629.167C395.349 629.167 385.023 594.562 422.338 536.915Z" fill="#34A853"/>
</svg>
